<?xml version="1.0" standalone="no"?>
<!DOCTYPE svg PUBLIC "-//W3C//DTD SVG 20010904//EN"
 "http://www.w3.org/TR/2001/REC-SVG-20010904/DTD/svg10.dtd">
<svg version="1.0" xmlns="http://www.w3.org/2000/svg"
 width="677.000000pt" height="675.000000pt" viewBox="0 0 677.000000 675.000000"
 preserveAspectRatio="xMidYMid meet">

<g transform="translate(0.000000,675.000000) scale(0.100000,-0.100000)"
fill="#ffffff" stroke="none">
<path d="M4400 5562 l0 -220 180 -172 180 -172 0 229 0 230 -157 144 c-86 79
-167 152 -180 162 l-23 18 0 -219z"/>
<path d="M2438 4275 c-757 -757 -1366 -1368 -1353 -1358 12 10 180 154 371
319 192 166 437 377 544 470 554 478 788 680 1020 880 681 587 776 669 783
681 4 7 15 13 23 13 8 0 230 -127 492 -281 262 -155 482 -284 487 -286 12 -5
-3 9 -549 532 -230 220 -423 401 -429 402 -7 2 -632 -616 -1389 -1372z"/>
<path d="M1130 3893 c-575 -575 -1017 -1023 -982 -995 34 28 187 154 340 281
1139 943 1693 1399 1707 1405 9 3 78 7 153 7 223 2 222 -13 13 182 -99 92
-182 167 -183 167 -2 0 -473 -471 -1048 -1047z"/>
<path d="M3482 4718 c-8 -8 -12 -57 -12 -154 0 -116 3 -145 16 -158 12 -13 41
-16 150 -16 75 0 144 5 155 10 17 10 19 23 19 164 0 131 -2 155 -16 160 -31
12 -299 7 -312 -6z"/>
<path d="M3903 4723 c-10 -3 -13 -44 -13 -153 0 -188 -8 -180 175 -180 178 0
170 -8 170 168 0 103 -4 143 -14 155 -11 15 -35 17 -160 16 -80 0 -152 -3
-158 -6z"/>
<path d="M858 4531 l-178 -162 0 -377 0 -376 167 164 c92 91 173 173 180 182
10 13 13 94 11 375 l-3 357 -177 -163z"/>
<path d="M4523 3970 c-271 -270 -491 -490 -489 -490 2 0 223 140 492 310 268
171 491 310 495 310 9 0 223 -163 1214 -920 88 -68 225 -172 305 -233 l145
-109 -125 124 c-430 427 -1524 1493 -1534 1495 -6 2 -232 -218 -503 -487z"/>
<path d="M3482 4298 c-8 -8 -12 -57 -12 -154 0 -181 -7 -174 170 -174 176 0
170 -6 170 170 0 76 -3 145 -6 154 -5 14 -29 16 -158 16 -105 0 -156 -4 -164
-12z"/>
<path d="M3902 4298 c-8 -8 -12 -57 -12 -155 0 -183 -7 -176 184 -171 94 2
139 7 148 16 17 17 24 255 9 295 l-11 27 -153 0 c-106 0 -157 -4 -165 -12z"/>
<path d="M352 2353 l3 -38 3055 0 3055 0 3 38 3 37 -3061 0 -3061 0 3 -37z"/>
<path d="M1137 1770 c-26 -5 -68 -18 -93 -31 -74 -35 -84 -67 -84 -274 0 -157
2 -174 23 -215 17 -35 34 -51 72 -70 45 -22 62 -25 165 -25 96 1 125 5 173 24
90 35 97 56 97 281 0 135 -4 189 -14 215 -16 37 -60 69 -116 85 -53 14 -169
20 -223 10z m211 -105 l32 -35 0 -169 c0 -155 -2 -170 -21 -194 -26 -34 -88
-51 -163 -44 -46 4 -64 11 -87 33 l-29 28 0 181 0 181 28 26 c33 32 58 38 142
33 59 -4 68 -8 98 -40z"/>
<path d="M1574 1756 c-3 -8 -4 -25 -2 -38 3 -22 7 -23 100 -26 l98 -3 2 -262
3 -262 55 0 55 0 3 262 2 262 103 3 102 3 0 35 0 35 -258 3 c-217 2 -258 0
-263 -12z"/>
<path d="M2175 1758 c-3 -7 -6 -128 -7 -268 l-3 -255 -45 -5 c-42 -5 -45 -7
-45 -35 0 -29 1 -30 55 -33 73 -4 117 5 141 29 18 18 19 35 19 259 l0 240 130
0 130 0 2 -262 3 -263 55 0 55 0 0 300 0 300 -243 3 c-189 2 -244 0 -247 -10z"/>
<path d="M2825 1758 c-3 -7 -4 -144 -3 -303 l3 -290 63 -3 62 -3 88 135 c48
74 114 177 147 228 l60 93 5 -225 5 -225 50 0 50 0 0 300 0 300 -65 0 -65 0
-40 -60 c-22 -33 -87 -132 -145 -220 l-105 -160 -5 220 -5 220 -48 3 c-32 2
-49 -1 -52 -10z"/>
<path d="M3515 1759 c-3 -8 -4 -145 -3 -304 l3 -290 175 0 c142 1 182 4 213
17 47 22 67 65 67 148 0 72 -19 114 -61 135 l-30 16 30 29 c29 26 31 33 31 99
0 136 -27 152 -262 159 -128 4 -159 2 -163 -9z m298 -78 c13 -10 17 -30 17
-74 0 -87 -12 -97 -117 -97 l-83 0 0 96 0 96 83 -3 c52 -3 90 -9 100 -18z m20
-260 c24 -19 24 -153 1 -172 -10 -8 -52 -15 -110 -17 l-94 -4 0 107 0 107 93
-4 c60 -2 100 -8 110 -17z"/>
<path d="M4084 1756 c-11 -29 1 -290 15 -317 20 -41 82 -64 171 -64 41 0 89 4
107 8 l32 8 3 -113 3 -113 55 0 55 0 0 300 0 300 -55 0 -55 0 -5 -150 c-5
-147 -5 -150 -30 -162 -40 -20 -123 -16 -153 8 -26 20 -27 22 -29 162 l-3 142
-53 3 c-40 2 -54 -1 -58 -12z"/>
<path d="M4685 1758 c-3 -7 -4 -144 -3 -303 l3 -290 63 -3 62 -3 88 135 c48
74 114 177 147 228 l60 93 5 -225 5 -225 50 0 50 0 0 300 0 300 -65 0 -65 0
-40 -60 c-22 -33 -87 -132 -145 -220 l-105 -160 -5 220 -5 220 -48 3 c-32 2
-49 -1 -52 -10z"/>
<path d="M5375 1758 c-3 -7 -4 -144 -3 -303 l3 -290 55 0 55 0 5 134 5 135
100 -109 c167 -182 144 -165 219 -165 36 0 66 4 66 9 0 10 -95 117 -198 223
l-75 76 22 29 c12 15 46 64 74 108 50 78 53 80 97 85 44 5 45 6 45 40 l0 35
-67 -1 c-86 -1 -105 -14 -174 -122 -58 -90 -92 -132 -105 -132 -5 0 -10 57
-11 128 l-3 127 -53 3 c-36 2 -54 -1 -57 -10z"/>
</g>
</svg>
